#!OML:ASF E:\Steps\Project 1\Capture day 1\Session 2\Subject.ASF
:FULLY-SPECIFIED
:DEGREES
611
root 9.32881 20.0865 -6.84325 -152.889 -0.721849 177.934
lowerback -20.7812 -2.99519 -4.49414
upperback 1.14063 -3.10004 1.08854
thorax 13.3306 -1.83756 2.79324
lowerneck -0.443973 -1.99967 -2.9243
upperneck 18.8035 -2.05571 5.09896
head 5.82251 -0.34773 2.0479
rclavicle -1.05455e-014 6.63754e-015
rhumerus -38.0309 -15.8239 -77.1877
rradius 35.1952
rwrist -5.10438
rhand -10.2112 -47.604
rfingers 7.12502
rthumb 15.7802 -76.9808
lclavicle -1.05455e-014 6.63754e-015
lhumerus -30.2293 0.787336 82.1122
lradius 29.1517
lwrist -0.758235
lhand -18.1105 -13.5825
lfingers 7.12502
lthumb 8.16368 16.2398
rfemur -45.098 3.76436 21.9242
rtibia 32.1039
rfoot -20.4577 -8.13887
rtoes -14.8495
lfemur -42.2236 -3.3479 -20.6226
ltibia 64.1264
lfoot 2.88707 6.40722
ltoes -31.4502
612
root 9.33899 20.1152 -6.88401 -153.053 -0.633673 178.01
lowerback -20.8359 -2.80844 -4.41676
upperback 1.24462 -2.85408 1.02898
thorax 13.4528 -1.71753 2.75933
lowerneck -0.410448 -1.99834 -2.77864
upperneck 18.6724 -2.05689 5.03227
head 5.77346 -0.347622 2.0006
rclavicle 5.98839e-015 -4.90128e-015
rhumerus -37.7604 -15.5022 -77.3362
rradius 35.3246
rwrist -5.3454
rhand -10.4907 -48.0124
rfingers 7.12502
rthumb 15.5111 -77.4102
lclavicle 5.98839e-015 -4.90128e-015
lhumerus -30.1151 0.623774 82.0975
lradius 29.3386
lwrist -0.647553
lhand -18.1947 -13.4492
lfingers 7.12502
lthumb 8.08244 16.3763
rfemur -44.2218 3.79041 22.0997
rtibia 31.1597
rfoot -20.1756 -8.03458
rtoes -16.0074
lfemur -43.5209 -3.23878 -20.6645
ltibia 67.1729
lfoot 1.95588 6.37803
ltoes -32.1015
613
root 9.35716 20.1403 -6.9253 -153.094 -0.247107 177.843
lowerback -21.0833 -2.63334 -4.74197
upperback 1.38402 -2.50082 0.87976
thorax 13.7358 -1.57725 2.88388
lowerneck -0.438594 -1.99898 -2.84522
upperneck 18.5207 -2.10755 5.32259
head 5.73525 -0.363094 2.09925
rclavicle 3.00615e-014 -3.22404e-015
rhumerus -37.241 -15.6131 -77.4003
rradius 35.092
rwrist -4.9695
rhand -10.2668 -48.129
rfingers 7.12502
rthumb 15.7267 -77.5099
lclavicle 3.00615e-014 -3.22404e-015
lhumerus -29.8555 0.528815 82.0398
lradius 29.4525
lwrist -0.500757
lhand -18.6783 -14.0094
lfingers 7.12502
lthumb 7.61563 15.8335
rfemur -43.6658 4.08255 21.8298
rtibia 30.5122
rfoot -20.0504 -7.97004
rtoes -15.3049
lfemur -44.9114 -2.9134 -21.0762
ltibia 70.1459
lfoot 0.951643 6.26873
ltoes -34.1746
614
root 9.37605 20.1681 -6.95669 -153.155 -0.0359974 177.732
lowerback -21.1052 -2.51356 -4.96487
upperback 1.4798 -2.26221 0.764438
thorax 13.8434 -1.48124 2.95794
lowerneck -0.264809 -2.09086 -3.07115
upperneck 18.4015 -2.28171 5.76523
head 5.68154 -0.434769 2.26861
rclavicle 6.50321e-016 3.68916e-015
rhumerus -36.5833 -16.1857 -77.3118
rradius 34.4573
rwrist -4.01537
rhand -9.83446 -47.7416
rfingers 7.12502
rthumb 16.143 -77.0893
lclavicle 6.50321e-016 3.68916e-015
lhumerus -29.5396 0.716083 81.8813
lradius 29.4748
lwrist -0.478279
lhand -18.6672 -13.831
lfingers 7.12502
lthumb 7.62639 16.0115
rfemur -43.2437 4.31908 21.6769
rtibia 30.0851
rfoot -19.9649 -7.96666
rtoes -14.5234
lfemur -46.4601 -2.72037 -21.3236
ltibia 73.272
lfoot -0.0171956 6.08403
ltoes -35.6249
615
root 9.3908 20.1997 -6.99042 -153.274 0.100284 177.645
lowerback -21.0418 -2.38691 -5.06337
upperback 1.55298 -2.05036 0.638917
thorax 13.8706 -1.38624 2.94243
lowerneck -0.868399 -2.21507 -2.6871
upperneck 19.1808 -2.34802 5.16294
head 6.02489 -0.445813 2.01615
rclavicle 1.12127e-015 -8.85834e-015
rhumerus -36.1625 -16.3117 -77.403
rradius 34.2624
rwrist -3.71938
rhand -9.68952 -47.9003
rfingers 7.12502
rthumb 16.2826 -77.2366
lclavicle 1.12127e-015 -8.85834e-015
lhumerus -29.3797 0.862022 81.7059
lradius 29.5355
lwrist -0.452679
lhand -18.6053 -13.3878
lfingers 7.12502
lthumb 7.68608 16.4525
rfemur -42.6437 4.42446 21.6049
rtibia 29.4501
rfoot -19.8155 -7.91024
rtoes -14.7691
lfemur -47.9361 -2.60673 -21.5229
ltibia 76.1891
lfoot -0.756843 5.90571
ltoes -36.6533
616
root 9.40221 20.2274 -7.03028 -153.404 0.198862 177.608
lowerback -21.0065 -2.23411 -5.06154
upperback 1.60912 -1.83277 0.542254
thorax 13.8909 -1.28239 2.90368
lowerneck -1.22543 -2.31668 -2.94733
upperneck 19.5784 -2.50156 5.4813
head 6.22567 -0.494878 2.15707
rclavicle -1.01753e-014 -1.12624e-014
rhumerus -36.1025 -15.9637 -77.5867
rradius 34.733
rwrist -3.99763
rhand -9.67079 -48.4222
rfingers 7.12502
rthumb 16.3007 -77.757
lclavicle -1.01753e-014 -1.12624e-014
lhumerus -29.3315 0.973412 81.6096
lradius 29.6024
lwrist -0.340617
lhand -19.099 -13.9067
lfingers 7.12502
lthumb 7.20955 15.9505
rfemur -41.8291 4.38858 21.652
rtibia 28.5063
rfoot -19.5642 -7.76298
rtoes -15.7472
lfemur -49.2903 -2.53685 -21.6705
ltibia 78.565
lfoot -1.20093 5.79271
ltoes -39.4728
617
root 9.4153 20.2526 -7.06813 -153.49 0.307936 177.573
lowerback -20.9933 -2.12619 -5.15456
upperback 1.58818 -1.66291 0.502947
thorax 13.8439 -1.20929 2.96866
lowerneck -0.949445 -2.22577 -2.83909
upperneck 19.3992 -2.33727 5.22589
head 6.11016 -0.431405 2.06567
rclavicle 7.44821e-015 -2.26118e-015
rhumerus -36.1697 -15.4383 -77.707
rradius 35.2462
rwrist -4.36963
rhand -9.82439 -48.6782
rfingers 7.12502
rthumb 16.1527 -78.0252
lclavicle 7.44821e-015 -2.26118e-015
lhumerus -29.5039 1.1257 81.5614
lradius 29.745
lwrist -0.058016
lhand -19.449 -14.2656
lfingers 7.12502
lthumb 6.87177 15.6029
rfemur -41.1969 4.46014 21.6405
rtibia 27.838
rfoot -19.4978 -7.66279
rtoes -15.9533
lfemur -50.6841 -2.52957 -21.7668
ltibia 80.7679
lfoot -1.95233 5.75496
ltoes -41.2077
618
root 9.43102 20.2789 -7.09995 -153.536 0.445338 177.328
lowerback -20.9487 -2.13359 -5.52834
upperback 1.51318 -1.57981 0.442734
thorax 13.7326 -1.19496 3.14221
lowerneck -0.680743 -2.1565 -2.91339
upperneck 19.4758 -2.19337 5.14139
head 6.08224 -0.362682 2.06246
rclavicle 3.10601e-017 -8.32411e-015
rhumerus -36.0366 -14.8979 -77.8211
rradius 35.3642
rwrist -4.60164
rhand -9.84728 -49.1467
rfingers 7.12502
rthumb 16.1307 -78.4955
lclavicle 3.10601e-017 -8.32411e-015
lhumerus -29.8876 1.09612 81.5221
lradius 29.9971
lwrist 0.536237
lhand -19.3707 -14.0361
lfingers 7.12502
lthumb 6.9473 15.8299
rfemur -40.7554 4.57437 21.3256
rtibia 27.3597
rfoot -19.4475 -7.72468
rtoes -15.0053
lfemur -52.155 -2.62756 -22.0151
ltibia 83.0419
lfoot -3.0395 5.52023
ltoes -40.005
619
root 9.44469 20.3035 -7.13529 -153.654 0.451901 177.143
lowerback -20.7203 -2.11508 -5.7153
upperback 1.41734 -1.51989 0.36231
thorax 13.4847 -1.17183 3.18119
lowerneck -0.469885 -2.08676 -3.26985
upperneck 19.5688 -2.10943 5.55117
head 6.07848 -0.305332 2.26179
rclavicle -1.90864e-015 -4.33599e-015
rhumerus -36.0528 -14.4304 -77.9389
rradius 35.5208
rwrist -4.84965
rhand -9.97894 -49.3811
rfingers 7.12502
rthumb 16.0039 -78.7401
lclavicle -1.90864e-015 -4.33599e-015
lhumerus -30.1466 1.09608 81.4199
lradius 30.0738
lwrist 1.01205
lhand -19.2945 -13.9723
lfingers 7.12502
lthumb 7.02084 15.8912
rfemur -40.0482 4.50403 21.1899
rtibia 26.4849
rfoot -19.041 -7.92431
rtoes -14.8942
lfemur -53.5404 -2.76415 -22.2005
ltibia 85.046
lfoot -3.71374 5.36854
ltoes -40.5845
620
root 9.45646 20.3254 -7.17642 -153.832 0.392106 177.171
lowerback -20.5143 -1.99824 -5.64734
upperback 1.37002 -1.39013 0.306573
thorax 13.2919 -1.09959 3.12434
lowerneck -0.461251 -2.18746 -3.2167
upperneck 19.9019 -2.16661 5.26973
head 6.18352 -0.32829 2.16545
rclavicle 6.74936e-015 1.0489e-014
rhumerus -36.2798 -13.9651 -78.067
rradius 35.9651
rwrist -5.40182
rhand -10.4041 -48.9456
rfingers 7.12502
rthumb 15.5945 -78.3369
lclavicle 6.74936e-015 1.0489e-014
lhumerus -30.3117 1.26119 81.2768
lradius 30.1491
lwrist 1.13147
lhand -19.1962 -13.7864
lfingers 7.12502
lthumb 7.11576 16.0739
rfemur -39.1843 4.46508 21.3264
rtibia 25.5043
rfoot -18.7057 -8.08383
rtoes -16.0385
lfemur -54.8352 -2.87708 -22.1718
ltibia 86.7757
lfoot -4.22136 5.34352
ltoes -41.9782
621
root 9.47023 20.3473 -7.2117 -153.873 0.355489 177.185
lowerback -20.5177 -1.87576 -5.63603
upperback 1.38066 -1.22025 0.231411
thorax 13.2863 -1.01747 3.08696
lowerneck -0.13411 -2.31017 -2.73177
upperneck 19.6971 -2.27329 4.72695
head 6.057 -0.389608 1.90303
rclavicle -1.29373e-014 5.23363e-016
rhumerus -36.2093 -13.7589 -78.2201
rradius 36.2285
rwrist -5.7724
rhand -10.5464 -48.5966
rfingers 7.12502
rthumb 15.4574 -77.9986
lclavicle -1.29373e-014 5.23363e-016
lhumerus -30.4072 1.30175 81.1339
lradius 30.3192
lwrist 1.1854
lhand -19.2165 -13.7487
lfingers 7.12502
lthumb 7.09612 16.1124
rfemur -38.6402 4.60499 21.332
rtibia 24.8763
rfoot -18.6461 -8.13262
rtoes -15.0469
lfemur -56.3923 -3.03262 -22.062
ltibia 88.6519
lfoot -5.22755 5.092
ltoes -39.556
622
root 9.48438 20.3704 -7.2394 -153.866 0.338371 177.112
lowerback -20.4478 -1.77224 -5.69472
upperback 1.41624 -1.05656 0.120008
thorax 13.2694 -0.94134 3.047
lowerneck -0.418129 -2.23505 -2.94399
upperneck 19.7146 -2.24965 5.24122
head 6.11665 -0.356508 2.10324
rclavicle -1.35919e-014 5.57839e-015
rhumerus -35.791 -13.7753 -78.396
rradius 36.1659
rwrist -5.8968
rhand -10.7037 -47.9754
rfingers 7.12502
rthumb 15.3059 -77.389
lclavicle -1.35919e-014 5.57839e-015
lhumerus -30.2838 1.32936 80.9733
lradius 30.2838
lwrist 1.13974
lhand -19.3351 -13.7355
lfingers 7.12502
lthumb 6.98164 16.1294
rfemur -38.2905 4.71256 21.2391
rtibia 24.4162
rfoot -18.5037 -8.30103
rtoes -14.3314
lfemur -58.0675 -3.16112 -22.0315
ltibia 90.4357
lfoot -6.26822 4.77945
ltoes -37.533
